<?xml version="1.0" encoding="utf-8"?>
<!-- Generator: Adobe Illustrator 27.6.1, SVG Export Plug-In . SVG Version: 6.00 Build 0)  -->
<svg version="1.1" id="Livello_1" xmlns="http://www.w3.org/2000/svg" xmlns:xlink="http://www.w3.org/1999/xlink" x="0px" y="0px"
	 viewBox="0 0 500 500" style="enable-background:new 0 0 500 500;" xml:space="preserve">
<style type="text/css">
	.st0{display:none;opacity:0.27;}
	.st1{display:none;}
	.st2{display:inline;}
	.st3{fill:#F8FBFF;}
	.st4{fill:#121B33;}
	.st5{display:inline;opacity:0.53;}
	.st6{opacity:5.000000e-02;}
	.st7{fill:#FFF6EE;}
	.st8{fill:#FFFFFF;}
	.st9{display:none;opacity:0.95;}
</style>
<g id="Livello_1_00000128482101342959925990000000214092320049579437_">
	<g id="DJ1pBx_00000122693303873552587320000001540459407924538258_" class="st0">
		
			<image style="display:inline;overflow:visible;enable-background:new    ;" width="434" height="675" id="DJ1pBx" xlink:href="57C2E9617F8B9C64.png"  transform="matrix(1.8881 0 0 1.8881 -4.7331 -780.6204)">
		</image>
	</g>
</g>
<g id="Livello_2_00000073696459928808973310000014872515549012224143_">
</g>
<g id="Livello_3" class="st1">
	<g class="st2">
		<rect x="-163.1" y="-163.1" class="st3" width="826.2" height="826.2"/>
		<path class="st4" d="M654.6-154.6v809.2h-809.2v-809.2L654.6-154.6 M671.6-171.6h-843.2v843.2h843.2V-171.6L671.6-171.6z"/>
	</g>
	<g class="st5">
		<g class="st6">
			<g>
				<path d="M-145.7-65.4C-132.5-38.9-107-16-77.5-9.7c8.1,1.7,16.9,1.8,24.6-1.9c8.4-4.1,14.8-12.1,20.8-19
					c5.6-6.3,10.8-12.6,14.4-20.3c3.5-7.3,6.1-15.1,8-23c4.8-19.5,5.3-39.9,1.7-59.7c0-0.1-3.3,3-2.9,2.6c-2.2,2.2-4.2,4.4-6.3,6.7
					c-2,2.3-4.1,4.6-6,6.9c-0.5,0.6-2.4,2.4-2.2,3.1c2.8,15,3.2,30.4,1.1,45.6c-2.1,14.6-6.1,30.3-14,42.9c-0.4,0.6-0.9,1.2-1.2,1.9
					c-0.3,0.5,12.1-12.3,9.3-10.4c-1.4,0.9-2.6,1.9-4.1,2.8c-3.3,1.8-6.9,2.9-10.6,3.4c-7.3,0.9-14.7-0.4-21.7-2.7
					c-12.4-4-24-10.6-34-18.9c-11.6-9.6-20.9-21.5-27.6-35c0,0.1-8.4,8.5-9.1,9.3C-138.4-74.4-146.4-66.9-145.7-65.4L-145.7-65.4z"
					/>
			</g>
		</g>
		<g class="st6">
			<g>
				<path d="M-117.5-55.3c0.5-4,1-8,1.5-12c-6.7,5.6-13.3,11.1-19.9,16.7c26.1,93.6,39.4,190.7,39.5,287.8c0,27.3-1,54.6-3.1,81.8
					c6.7-5.6,13.3-11.1,19.9-16.7c-8.4,3-10.2-14.8-11.2-19.7c-2.2-10.7-3.7-21.5-4.6-32.4c-0.8-10.6-1.1-21.2-0.7-31.8
					c0.3-7.9,0.1-18.9,6.3-24.8c-5.2,4.4-10.4,8.8-15.6,13.2c-1.3,1,1.8-0.6,2.3-0.7c1.1-0.3,2.2-0.4,3.3-0.4c2.3,0,4.6,0.6,6.7,1.4
					c4.7,1.9,8.8,5.3,12.4,8.9c7.9,8,14.6,17.6,21.2,26.7c14,19.2,26.5,39.5,37.5,60.6c0.1,0.2,9.6-7.3,10.3-7.9c2.4-2,4.7-4,6.9-6
					c0.6-0.5,2.7-2,2.7-2.8C-2.6,215.9-25.2,148-47.5,81.5c0,0.1-9.5,7.2-10.3,7.9c-1.1,0.9-10.1,7.3-9.6,8.8
					c22.3,66.5,44.8,134.4,45.6,205.3c6.6-5.6,13.3-11.1,20-16.7c-8.8-16.8-18.5-33.1-29.2-48.8c-5.4-8-11.1-15.8-17-23.4
					c-5.2-6.8-10.4-14-17.2-19.4c-5.7-4.5-13.1-8-20.2-4.8c-4.4,2-8.4,5.8-12.1,8.8c-4.4,3.6-9.5,7.3-12.9,11.9
					c-4.5,6-5,14-5.4,21.2c-0.5,9.9-0.4,19.9,0.2,29.9c0.5,7.7,3.9,61.4,16.2,56.9c3.7-1.3,7.4-5.4,10.3-7.9c2.3-2,4.7-4,6.9-6
					c0.6-0.6,2.6-1.9,2.7-2.8c7.3-96.9,1.5-194.7-17.4-290c-5.3-26.8-11.7-53.3-19-79.7c0.1,0.2-9.5,7.2-10.3,7.9c-2.3,2-4.7,4-7,6
					c-0.6,0.6-2.6,1.9-2.7,2.8c-0.5,4-1,8-1.5,12c0,0,3.6-2.5,3.2-2.1c2.4-1.8,4.8-3.8,7.2-5.8c2.3-2,4.7-4,6.9-6
					C-119.6-53.1-117.7-54.4-117.5-55.3L-117.5-55.3z"/>
			</g>
		</g>
		<g class="st6">
			<g>
				<path d="M-36.5,66.7c11.2,30.5,19.5,63,20.7,95.6c0.2,5.7,0.1,12.1,1.6,17.7c0.3,1.1,0,1.7,0.7,1.3c0.6-0.4,0-5.6,0-6
					c-1.7-45.6-8.7-90.7-24.5-133.6c-0.5-1.4-0.5,1.5-0.5,1.3c-0.3,2.5,0.1,5.3,0.2,7.8C-37.9,55.7-38.2,62-36.5,66.7L-36.5,66.7z"
					/>
			</g>
		</g>
		<g class="st6">
			<g>
				<path d="M-16.5,16.2c-0.8-0.3-1-0.9-0.7-1.8c-3.6,7.5-7.3,15-10.9,22.6C-24,30.6-17,52.8-16.2,55.2c2.9,9.6,4.7,19.6,6.1,29.5
					c2.8,20.7,4.5,41.6,5.2,62.5c0.7,20.8,0.5,41.6-0.7,62.3c-0.3,4.9-0.4,9.9-1.1,14.8c-0.2,1.6-0.5,3.2-0.9,4.8
					c-0.9,3.6-3,7.1,3.1-5.7c4.7-7.9,5.4-9.9,2.2-6.2c-0.3,0.3-0.7,0.6-1,0.8c-2.1,0.8-0.7,0.7-1.9-0.8c-0.6-0.7-1.1-2.2-1.5-3.1
					c-1-2.1-1.9-4.2-2.8-6.4c-1.9-4.6-3.5-9.2-4.9-13.9c-6-20.8-7.2-42.7-3.5-64c-3.8,7.6-7.5,15.3-11.3,22.9
					c11.9,0,22.2,6,31.9,12.4c9.7,6.6,19.1,13.7,28,21.4c17.8,15.4,33.7,32.9,47.4,51.9c-0.2-0.2,5.7-10.4,6.2-11.4
					c1.3-2.8,2.7-5.5,3.8-8.4c0.4-1,1.3-2.5,1.3-3.6c-1-19.7-8-38.7-14.1-57.3c-6.2-18.9-12.8-37.6-19.4-56.4
					C42.6,63.8,29.1,26.2,17.5-12.2C10.9-33.8,5-55.7,0.1-77.9c0,0-2.3,3.7-2.1,3.2c-1.5,2.7-2.8,5.4-4.2,8.2
					c-1.3,2.8-2.7,5.5-3.8,8.3c-0.4,0.9-1.5,2.7-1.3,3.6C6.1,23.8,36.2,98.3,61.6,174.2c7,20.8,15.4,42.3,16.5,64.5
					c3.8-7.8,7.6-15.6,11.3-23.4c-13.8-19.1-29.6-36.6-47.4-52c-8.7-7.5-17.8-14.5-27.3-20.9c-9.8-6.7-20.4-12.9-32.6-12.9
					c-1.4,0-5.1,9-5.5,9.9c-2,4-5,8.6-5.8,13c-3.9,22.5-2.7,45.6,4.1,67.5c1.5,5,3.4,9.9,5.4,14.6c0.3,0.7,2.8,7.7,3.7,7.8
					c1.3,0.2,4-3.5,4.7-4.4c4.4-5.8,7.4-13.2,10.4-19.8c2.2-4.8,4.1-9.6,5-14.8c1.9-11.3,1.9-23.2,2.2-34.7c0.4-13,0.4-26,0.1-38.9
					C5.9,104.8,4.1,79.6,0.2,55c-2.1-13-4.8-26.7-10.9-38.5c-0.9-1.8-2.6-4.9-5.1-4c-2,0.7-3.2,4.3-4,5.8c-2.7,5-5.2,10.2-7.4,15.4
					c-0.7,1.7-2.4,4.5-0.6,5.9c0.3,0.2,5.8-10.6,6.2-11.4C-21.1,27.2-15.6,16.9-16.5,16.2L-16.5,16.2z"/>
			</g>
		</g>
		<g class="st6">
			<g>
				<path d="M13.2-9.8c32.9,68.9,58.9,140.9,77.6,215c0.4,1.6,11,2.9,12.6,3.2c0.9,0.2,12.8,2.4,12.9,1.9c1.3-23-3.4-45.6-9.4-67.6
					c-6-22-12.7-43.7-19.8-65.4C72.8,34.1,56.7-8.5,39.8-50.8C30.4-74.7,20.7-98.4,11-122.2c-8.5-1.7-17-3.4-25.5-5.1
					c14,19.9,28,39.7,42,59.6C34-58.5,40.3-49.2,47-40.2c5.3,7.1,11.1,14.1,18.4,19.3c9.1,6.4,19.9,8.4,30.7,10.4
					c4.1,0.8,10.4,2.9,14.4,1.4c3.9-1.6,7.8-5.5,10.8-8.4c12.3-12.5,18.7-30.2,19.1-47.6c0.5-23.6-9.2-46-22-65.3
					c-0.4-0.6-3.3-1.1-3.6-1.2c-3-0.8-6-1.4-9-2c-3-0.6-6-1.2-9.1-1.6c-0.4-0.1-3.8-0.3-3.8-0.3c19.5,41.5,39.1,83.3,64.6,121.6
					c6.4,9.6,13.1,19,20.3,28.1c3.4,4.3,6.9,8.5,10.5,12.7c0.7,0.8,5.4,5,5.2,5.8c-0.2,0.8-9.9,2.9-11.1,3.3
					c-24.2,7-48.6,13.1-73.2,18.4C80.3,60.4,51.2,65.4,22,69.2c8.3,1.7,16.7,3.5,25,5.2c10.7-3,21.3-6,32-9.1c-0.1,0-4-1.3-3.6-1.2
					c-3-0.8-6-1.4-9-2c-3.6-0.7-9.2-2.9-12.9-1.9c-10.7,3-21.4,6-32,9.1c0.1,0,4,1.3,3.6,1.2c2.4,0.6,4.9,1.2,7.3,1.7
					c4.2,0.9,9.8,2.9,14.1,2.3c50.7-6.6,100.9-16.7,150.1-30.3c6.2-1.7,12.4-3.5,18.6-5.3c0.6-0.2,3.6-0.9,3.7-1.1
					c0.1-0.3-2.6-2.8-2.9-3.2c-2.1-2.4-4.2-4.8-6.2-7.2c-7.4-8.9-14.4-18.1-21.1-27.5c-13.3-19-25-39.1-35.8-59.6
					c-12.3-23.2-23.4-46.9-34.6-70.6c-8.5-1.7-17-3.4-25.5-5.1c19,28.9,30.9,66.6,13.1,99c-3.7,6.8-8.6,12.9-14.5,17.8
					c-1.5,1.2-3.1,2.3-4.7,3.4c-6,4.6,19.2,7.2,11,3.6c-4-1.8-7.6-4.2-10.9-7.1C73.1-30.9,63.4-47.8,53-62.5
					c-14-19.9-28-39.7-42-59.6c-0.4-0.6-3.3-1.1-3.6-1.2c-3-0.8-6-1.4-9-2c-3-0.6-6-1.2-9.1-1.6c-0.4-0.1-3.8-0.3-3.8-0.3
					C19.9-43,54.4,41.5,79.1,129.2c7,24.8,13.2,50.1,11.7,76c8.5,1.7,17,3.4,25.5,5.1c-18.7-74-44.7-146.1-77.6-215
					c-0.3-0.6-3.5-1.2-3.6-1.2c-3-0.8-6-1.4-9-2c-3-0.6-6-1.2-9-1.6C16.6-9.6,13.2-9.8,13.2-9.8L13.2-9.8z"/>
			</g>
		</g>
		<g class="st6">
			<g>
				<path d="M169.2-99.8c33.1-10.7,66.1-22,98.9-33.7c-0.1,0-4-1.4-3.6-1.2c-3-0.8-5.9-1.5-8.9-2.2c-3-0.7-6-1.4-9-1.9
					c-1-0.2-2.8-0.8-3.8-0.5c-32.8,11.8-65.7,23-98.9,33.7c0.1,0,4,1.3,3.6,1.2c2.9,0.8,5.9,1.5,8.9,2.2c3,0.7,6,1.4,9,1.9
					C166.4-100.1,168.2-99.5,169.2-99.8L169.2-99.8z"/>
			</g>
		</g>
		<g class="st6">
			<g>
				<path d="M163.5-111.8c13.3,57.7,36.9,112.7,69.6,162c-0.3-0.5,3.2-10,3.4-10.8c1.1-4.3,3.2-9.5,2.9-14
					c-1.6-32.6-7.9-64.8-18.6-95.6c-2.1,8.4-4.2,16.8-6.3,25.2C247.1,19.4,303,68.7,365.9,102.4c17.8,9.5,36.2,17.9,55.1,25.1
					c-0.3-0.1,8.6-24,6.3-25.2c-41-22.3-89.5-19.4-133.8-10.3c-47,9.7-93,25.4-136.4,45.8c-21.7,10.2-42.8,21.6-63.2,34.2
					c-19.3,11.9-38.4,24.7-54.9,40.3c-15.9,15-28.7,32.5-34.8,53.7c-5.6,19.5-14,48.4,8.8,60.5c19.1,10.2,44.4,2.8,63.2-4.6
					c23.9-9.4,46.6-22.1,69.1-34.4c41-22.5,81.6-46.1,120.7-71.8c36.3-23.9,71.4-50.2,102-81.2c14.7-14.8,28.3-30.7,40.5-47.6
					c6.5-9.1,12.6-18.5,18.2-28.2c2.7-4.7,4.6-9.3,6-14.6c1.4-5,2.7-10.2,3.7-15.3c0.5-2.7,1.2-5.8,0.2-8.5c-3.6-8.9-20.7-6-27.8-5
					c-12.5,1.9-24.4,6.2-36.1,10.7c-22.5,8.7-44.5,18.3-66.2,28.9c-43.3,21.2-84.7,46-123.7,74.2c-9.6,7-19.1,14.2-28.4,21.5
					c-0.7,0.6-1.2,3-1.4,3.6c-0.9,2.9-1.7,5.9-2.4,8.9s-1.4,6-2,9c-0.1,0.5-0.3,3.7-0.4,3.8c66.5-52.5,140.9-95,220-125.3
					c11.5-4.4,23.1-8.5,35.3-10.2c5.8-0.8,28.8-3.8,27.2,8c1.3-5.8,2.7-11.5,4-17.3c0.3-1,2-4.3,0.1-1.1c-0.4,0.7-0.8,1.4-1.2,2.1
					c-0.9,1.6-1.9,3.2-2.8,4.9c-2.2,3.7-4.4,7.3-6.7,10.9c-4.5,7-9.3,13.8-14.3,20.5c-9.4,12.5-19.6,24.4-30.5,35.6
					c-22.1,23-46.6,43.5-72.4,62.3c-26,19-53.2,36.3-80.9,52.9c-31.2,18.7-62.8,36.9-95,53.9c-16.4,8.6-33,17.5-50.3,24.1
					c-15.1,5.8-32.2,10.4-48.5,8c-15.1-2.2-27.2-12.4-28-28.3c-0.1-1.7-0.1-3.4,0.1-5c0.1-0.8,0.3-1.7,0.3-2.5
					c0-0.8-3.9,13.7-2.5,10.4c1.5-3.5,2.9-7,4.8-10.3c4.2-7.5,9.4-14.4,15-20.9c22-25.1,51.6-43.6,80.2-60.2
					c30.4-17.7,62.3-32.8,95.3-45.2c32.9-12.3,67-22.4,101.6-28.4c32.6-5.7,67.1-7.4,99,2.7c8,2.5,15.7,5.9,23,9.9
					c2.1-8.4,4.2-16.8,6.3-25.2c-66.7-25.6-129.5-65.6-174.2-122c-12.4-15.7-23.2-32.5-32.3-50.4c-0.1-0.1-1.6,4.2-1.4,3.6
					c-0.9,2.9-1.7,5.9-2.4,8.9c-0.7,3-1.4,6-2,9c-0.2,1.1-0.8,2.8-0.4,3.8c10.6,30.5,16.8,62.3,18.5,94.6c2.1-8.2,4.2-16.5,6.3-24.7
					c-32.7-49.3-56.4-104.3-69.6-162c0,0.1-1.5,3.9-1.4,3.6c-0.9,2.9-1.7,5.9-2.4,8.9C165-121.1,162.6-115.6,163.5-111.8
					L163.5-111.8z"/>
			</g>
		</g>
		<g class="st6">
			<g>
				<path d="M186.9,351.8c8.6,30.9,26.9,61.5,53.2,80.5c14,10.1,30.5,8.4,43.4-2.7c12.8-11,18.2-27.9,23.2-43.4
					c1.6-5,1.7-10.7,2.2-15.9c0.2-2.5,0.7-5.2,0.4-7.8c0-0.2,0-2.7-0.5-1.4c-5,15.7-10.5,32.8-23.9,43.5
					c-12.9,10.3-28.7,11.5-42.2,1.7c-25.9-18.8-44.4-49.1-52.9-79.6c-0.4-1.3-0.7,1.1-0.7,1.2c-0.7,2.4-0.9,5.3-1.2,7.7
					c-0.4,3.3-0.7,6.6-0.9,10C187,347.6,186.4,350,186.9,351.8L186.9,351.8z"/>
			</g>
		</g>
		<g class="st6">
			<g>
				<path d="M184.5,337.8c1.2,69.4-1.6,139-8.9,208c-0.8,7.9-1.8,15.8-3.7,23.6c-0.8,3.4-1.8,6.8-3.1,10.1c-0.7,1.9-1.5,3.8-2.4,5.6
					c-1,2.1-1.3,2.7-3.6,2c-0.7-0.2-1.3-0.5-2-0.9c-3.4-1.9-6-6.4,4,6c11,13.7,6.6,9.1,5.2,6c-0.3-0.6-0.6-1.2-0.9-1.8
					c-1.8-3.9-3-8.1-4.3-12.2c-2.3-7.6-4.1-15.3-5.4-23.2c-2-12.5-6.7-32.5,5.9-40.8c10.5-7,25.2-4.5,36.4-0.8
					c7.6,2.5,14.9,6.1,21.5,10.7c3.3,2.2,6.5,4.7,9.5,7.3c1.4,1.2,2.8,2.5,4.1,3.8c0.6,0.5,3.5,4.4,4.3,4.5c0,0-5.1-6.8-3.3-4.1
					c0.6,0.9,1.2,1.8,1.8,2.7c1.4,2.1,2.7,4.2,4,6.3c2.1,3.5,4.1,7.1,6,10.8c4.2,8.1,7.9,16.4,11.4,24.8
					c5.1,6.1,10.1,12.2,15.2,18.2c-26.7-42-45.7-88.8-56.2-137.4c-0.8-3.5-5.4-7.8-7.6-10.5c-1.9-2.4-3.9-4.8-5.9-7.1
					c-0.5-0.5-2.6-2.2-2.7-2.7c10.8,50,30.5,97.5,57.9,140.6c2.9,4.5,6.5,8.7,9.9,12.8c1.3,1.5,2.6,3.3,4.1,4.7
					c0.2,0.2,1.7,1.9,1.2,0.7c-6.8-16.5-14.6-32.5-24.8-47.1C241,542.4,228.5,526,213,514c-12.2-9.5-26.7-16.5-42.2-18.1
					c-6.5-0.7-13.6-0.2-19.6,2.8c-7.4,3.7-10.2,10.7-10.3,18.6c-0.2,17.8,3.9,36.2,9.6,53c3,8.9,7.9,15.8,13.8,23.2
					c3.1,3.8,6.2,8.2,10,11.3c1,0.9,2.2,1.7,3.5,2.2c0.5,0.2,1.2,0.5,1.7,0.5c2.1,0.2,1.5,0.1,2.7-1.3c2.3-2.8,3.4-8,4.5-11.4
					c1.4-4.5,2.4-9.1,3.1-13.7c1.5-9.1,2.3-18.3,3.2-27.4c1.9-20,3.5-40.1,4.8-60.1c2.8-45.1,3.7-90.3,2.9-135.4
					c0-0.9-1.7-2.9-2-3.2c-1.8-2.5-3.7-4.9-5.6-7.3c-1.9-2.4-3.9-4.8-5.9-7.1C186.9,340.1,184.5,338,184.5,337.8L184.5,337.8z"/>
			</g>
		</g>
		<g class="st6">
			<g>
				<path d="M255.8,452.8c0.4,33.7,0.9,67.4,1.3,101.1c0,0,2.7-3.4,2.4-3c1.8-2.5,3.4-5.1,5-7.7c1.6-2.6,3.2-5.2,4.6-7.9
					c0.5-1,1.6-2.4,1.6-3.5c-0.4-33.7-0.9-67.4-1.3-101.1c0,0-2.7,3.4-2.4,3c-1.8,2.5-3.4,5.1-5,7.7c-1.6,2.6-3.2,5.2-4.6,7.9
					C256.8,450.3,255.8,451.7,255.8,452.8L255.8,452.8z"/>
			</g>
		</g>
		<g class="st6">
			<g>
				<path d="M292.4,406.9c3,41.6,0.9,83.5-6.5,124.6c-1.9,10.3-4.1,20.6-6.6,30.8c-1.9,7.8-4,15.8-8.1,22.7c-0.5,0.8-1,1.5-1.5,2.3
					c-0.3,0.4-0.5,0.7-0.8,1.1c4.1-4,8.3-8,12.5-12c-1.2,0.6-4.1,3.4-5.4,2.9c-1-0.4-2.9-4.9-3.5-5.8c-1.2-2.2-2.4-4.5-3.5-6.8
					c-4.1-8.4-7.3-17.2-9.5-26.3c-2.5-9.9-3.8-20.1-3.9-30.3c-0.1-9.2-0.9-24,5.8-31.4c-4.2,4.2-8.4,8.4-12.6,12.6
					c-4.9,4.6-1.4,1.4,0.5,0.6c1.4-0.6,2.9-0.9,4.5-1.2c2.9-0.4,5.9-0.2,8.8,0.4c5.8,1.4,10.8,4.9,14.9,9.1
					c9.9,10.1,16.9,23.7,24,35.8c15.5,26.5,28.9,54.1,40.1,82.7c0-0.1,9-7.9,9.7-8.7c2.2-2.1,4.4-4.3,6.5-6.5c0.6-0.6,2.4-2.1,2.4-3
					c0.4-38.3-7-76.5-12.6-114.4c-5.6-38.3-11.3-76.6-17-114.9c-3.2-21.6-6.4-43.2-9.6-64.8c0.1,0.7-8.8,7.7-9.7,8.7
					c-2.2,2.1-4.4,4.3-6.5,6.5c-0.5,0.5-2.5,2.2-2.4,3c11.3,76.6,23,153.1,33.9,229.7c3,21.3,5.5,42.8,5.3,64.4
					c6.2-6,12.4-12.1,18.6-18.2c-13.2-33.7-29.5-66.1-48.6-96.8c-7.7-12.2-16.5-28.7-32.3-31.1c-6.9-1-12.8,1.1-17.9,5.5
					c-4.9,4.2-9.5,8.8-14,13.4c-2.6,2.7-5.2,5.4-6.7,8.9c-3.3,7.4-3.4,16.5-3.5,24.4c-0.1,8.5,0.6,17,2.1,25.4
					c1.5,8.1,3.7,16,6.6,23.7c1.4,3.7,3,7.3,4.7,10.9c1.7,3.6,3.5,8.1,6.1,11.2c1.5,1.8,1.7,1.2,3.8,0.2c1.4-0.7,2.6-1.5,3.8-2.5
					c4.2-3.1,8-7,11.7-10.6c6-5.9,12-11.8,15.6-19.5c7.1-14.8,9.7-32.4,12.6-48.4c7.7-41.7,9.9-84.2,6.9-126.4c0-0.1-3.5,2.8-3,2.4
					c-2.3,2-4.5,4.2-6.7,6.3c-2.2,2.1-4.4,4.3-6.5,6.5C294.3,404.6,292.3,406.2,292.4,406.9L292.4,406.9z"/>
			</g>
		</g>
		<g class="st6">
			<g>
				<path d="M331.1,372.4c9.4,76.7,21,153,35,229c0,0.1,3.2-3.1,2.8-2.6c2.1-2.2,4.1-4.5,6.1-6.9c2-2.3,4-4.7,5.9-7.1
					c0.5-0.6,2.3-2.4,2.2-3.2c-13.6-93-31.6-185.4-54-276.8c-6.3-25.8-13-51.6-20-77.2c-5.6,6.6-11.3,13.2-16.9,19.8
					c13.4,29,26.8,58,40.1,86.9c6.2,13.3,11.7,27.2,18.8,40.1c5.2,9.5,12.9,19.4,24.8,19.4c0.6,0,2.7-2.5,2.8-2.6
					c2.1-2.2,4.1-4.5,6.1-6.9c2-2.3,4-4.7,5.9-7.1c0.7-0.9,1.9-2.1,2.2-3.2c12-57.9,3.5-119.1-23.6-171.7c0,0.1-8.2,8.7-8.9,9.5
					c-2,2.3-4,4.7-5.9,7.1c-0.6,0.8-2.1,2.2-2.2,3.2c-1.6,29.7,7.3,58.6,16.3,86.6c8.8,27.3,18.8,54.3,30,80.7
					c5.6,13.2,11.5,26.3,17.8,39.2c3,6.2,6,12.3,9.1,18.5c3.1,6,6.5,12.2,7.7,18.9c0.5,3.1,0.6,6.4-0.4,9.4
					c-0.4,0.8-0.7,1.6-1.1,2.5c13.6-13.6,17.4-18.2,11.4-13.7c-1,0.5-1.8,1-2.8,1.5c-5,2.1-10.8,2.3-16.1,2
					c-13.7-0.8-27.6-4.1-41-6.8c-32.3-6.6-64.1-15.7-95.1-27c-5.6,6.6-11.3,13.2-16.9,19.8c35.8-7.9,71.6-15.7,107.4-23.6
					c0.8-0.2,2.5-2.3,2.8-2.6c2.1-2.2,4.1-4.5,6.1-6.9c2-2.3,4-4.7,5.9-7.1c0.4-0.5,1.9-3.1,2.2-3.2c-35.8,7.9-71.6,15.7-107.4,23.6
					c-0.8,0.2-2.5,2.3-2.8,2.6c-2.1,2.2-4.1,4.5-6.1,6.9c-0.7,0.8-7.8,10.3-8,10.3c29.8,10.9,60.3,19.7,91.4,26.3
					c14.4,3,29.3,6.5,44,7.6c5.2,0.4,10.7,0.2,15.6-1.5c6.9-2.5,11.4-8.6,16-14c4.4-5.1,10.4-10.8,11.9-17.7
					c1.5-7-1.5-14.3-4.5-20.5c-6.7-13.9-13.9-27.6-20.3-41.7c-13-28.4-24.5-57.4-34.5-86.9c-11.1-32.8-23.4-67.5-21.6-102.6
					c-5.6,6.6-11.3,13.2-16.9,19.8c27.1,52.5,35.6,113.7,23.6,171.7c5.6-6.6,11.3-13.2,16.9-19.8c-11.6,0.1-19.2-9.4-24.4-18.7
					c-7.3-13-12.9-27.2-19.1-40.7c-13.4-29-26.8-58-40.1-86.9c0.1,0.1-8.2,8.7-8.9,9.5c-2,2.3-4,4.7-5.9,7.1
					c-0.4,0.6-2.4,2.5-2.2,3.2c24.7,90.7,45.2,182.6,61.3,275.2c4.5,26.2,8.7,52.5,12.6,78.8c5.6-6.6,11.3-13.2,16.9-19.8
					c-14-76-25.7-152.3-35-229c0-0.1-3.2,3.1-2.8,2.6c-2.1,2.2-4.1,4.5-6.1,6.9c-2,2.3-4,4.7-5.9,7.1
					C332.8,369.9,331,371.6,331.1,372.4L331.1,372.4z"/>
			</g>
		</g>
		<g class="st6">
			<g>
				<path d="M382.5,197.2c37.4,16.6,79.4,6.9,118.6,14c1.9,0.3,8-7.8,9.2-9.2c2.1-2.3,4.1-4.5,6.1-6.9c0.2-0.3,2.3-3.1,2.2-3.1
					c-39.2-7.1-81.2,2.6-118.6-14c-1.2-0.6-8.3,8.2-9.2,9.2C390.2,187.9,382.6,197.2,382.5,197.2L382.5,197.2z"/>
			</g>
		</g>
		<g class="st6">
			<g>
				<path d="M395.6,171.7c8.6,77.2,19.3,154.2,32.1,230.8c0.7,4.3,4,9.2,5.9,13c1.1,2.2,2.2,4.5,3.5,6.6c0.3,0.6,2.1,2.7,2.1,3.2
					c1-64.9-3.4-129.7-13.1-193.9c-3.8-7.4-7.6-14.9-11.4-22.4c19,65.9,49,129.5,86.8,186.6c9.2,13.9,18.9,27.3,29.3,40.4
					c9.7,12.2,19.5,24.9,32.1,34.3c2.8,2.1,5.7,4,8.8,5.6c1.7,0.9,4,2.3,5.9,2.7c1.4,0.3,1,0.9,1.5-0.1c0.3-0.5-0.1-2-0.2-2.6
					c-1-9.2-6.7-18.3-10.9-26.3c-7.2-13.6-17.9-21.8-32.5-26.7c-31.1-10.5-66.7-6.6-98.4-0.5c-28.2,5.5-56.4,15.3-78.9,33.6
					c-11.5,9.3-22.7,21.2-28.1,35.2c-5.4,13.9-2.3,27.8,3.6,41c6.8,15,14.2,30.8,28,40.7c13,9.2,29.2,12.8,44.9,12.4
					c16.8-0.4,33.2-5.6,48.3-12.7c15.4-7.2,30.5-16,44.2-26.2c11.9-8.8,28-21.3,29.3-37.4c0.6-7.2-2.2-13.8-5.1-20.1
					c-4.2-9.1-8.5-18.6-14.9-26.5c-4.5-5.6-9.9-10.5-15.4-15.1c0.2,0.2,1.4,3.8,1.3,3.6c1.2,2.8,2.5,5.6,3.9,8.3
					c1.7,3.4,3.3,8.9,6.3,11.4c5,4.3,10,8.7,14.2,13.9c1,1.2,1.9,2.5,2.8,3.7c5.7,7.5-6.9-19.2-5.3-10.6c0.7,3.8,1.1,7.4,0.3,11.3
					c-2.8,13.5-15.7,24.1-26.1,32.1c-11.6,9-24.4,16.6-37.4,23.5c-13.1,6.9-26.9,12.7-41.4,15.6c-25.5,5.1-55.7,0.3-72.6-21.2
					c-0.9-1.2-1.7-2.3-2.6-3.5c-5.1-7.2,7.2,17.9,4.7,9.5c-0.8-2.8-1.6-5.5-2-8.3c-1-6.5-0.5-13.3,1.6-19.5
					c4.1-12.5,13.3-23.4,22.8-32.3c18.4-17.1,41.8-27.7,65.7-34.4c25.4-7,52.6-10.8,79-10.2c14.9,0.3,30,2.4,43.8,8
					c5.4,2.2,10.6,5,15.1,8.7c2.5,2,4.4,4.4,6.5,6.8c-11.3-12.6-7.4-19.1-6.2-11.4c0.2,1.2,0.3,2.4,0.2,3.7c-1-0.4-2-0.7-3-1.2
					c-13-5.4-23.2-15.7-32.2-26.2c-8.9-10.4-17.3-21.2-25.4-32.2c-18.2-24.8-34.8-51-48.3-78.6c-13.5-27.6-24.1-56.8-32.6-86.3
					c-1.5-5-4.3-9.9-6.7-14.5c-1.2-2.3-2.2-4.8-3.7-6.9c-0.2-0.3-1.2-2.2-1-1c9.7,63.8,14,128.4,13,192.9
					c3.8,7.6,7.6,15.2,11.4,22.8c-12.7-76.3-23.4-152.9-32-229.8c-0.4-3.9-3.5-8.4-5.2-11.9c-1.4-2.8-2.7-5.5-4.2-8.2
					C397.2,174.2,395.6,172.4,395.6,171.7L395.6,171.7z"/>
			</g>
		</g>
		<g class="st6">
			<g>
				<path d="M384.9-168.5c-2.6,41.3,6.8,83,26.9,119.2c4.9,8.9,10.4,17.7,16.8,25.5c5.5,6.8,12.5,12.8,21.6,13.6
					c5,0.4,9.9-0.8,14.7-2.1c7.1-2,14.3-4.2,21.1-7.1c8.7-3.7,15.5-10,19.9-18.4c5.4-10.4,7.2-22.6,7.8-34.2
					c0.8-13.4-0.5-26.8-3.6-39.9c-0.1-0.3-25.2,6.2-24.8,7.9c4.5,19.7,5.5,41.1,0.6,60.9c-2.1,8.4-5.7,16.8-11.9,23
					c-1.7,1.7-3.5,3.2-5.5,4.5c-0.8,0.5-1.8,1-2.6,1.6c15-10.5,18.5-4.4,12.4-4.2c-4.7,0.1-9-0.7-13.2-3
					c-7.5-4.1-12.8-11.4-17.6-18.3c-5.1-7.4-9.8-15.1-13.9-23.1c-8.5-16.5-15-34-19.1-52.1c-4.6-20.3-6.3-41.2-5-61.9
					c0-0.1-11.6,3-12.6,3.3C395.6-172.7,385-170.3,384.9-168.5L384.9-168.5z"/>
			</g>
		</g>
		<g class="st6">
			<g>
				<path d="M393-109.1c-4,72.9-19.3,144-44.6,212.4c-2.9,7.9-5.3,17-9.9,24.2c-4.5,7.2-12.1,7.2-18.2,1.7
					c-5.8-5.3-9.5-13.3-11.4-20.8c-1-3.8-1.5-7.8-1.5-11.7c0-1.1,0.1-2.2,0.1-3.3c-0.1-1-3.5,16.2-2,12.2c1.1-2.9,1-4.8,4.2-2.8
					c6.3,4.2,11.9,11,16.6,16.9c5,6.2,9.4,12.8,13.3,19.7c8,14,14.2,29,19.8,44.1c15,40.9,26.7,82.9,35.4,125.5
					c0.3,1.3,0.7-1,0.8-1.2c0.8-2.3,1.2-5.2,1.6-7.6c0.9-5.1,2.4-10.7,2.2-15.9c-1.3-32.5-7.3-64.6-12.1-96.8
					C385,171.9,383,156,382,140c-0.8-14.2-1.6-29.5,1-43.6c0.6-3.3,1.1-6.6,1.6-9.9c0.1-0.6,1.1-5.1,0.6-6c-0.5-0.8-0.4,0.3-0.8,1.2
					c-0.8,2.4-1.1,5.1-1.6,7.6c-3.6,19.3-5.9,38.8-5.9,58.5c0.1,17.8,1.9,35.6,4.2,53.2c4.8,36,12.1,71.6,13.6,108
					c1.5-8.2,3-16.4,4.5-24.7c-6.5-31.7-14.6-63.1-24.5-93.9c-8.8-27.4-18-55.4-32.9-80.1c-8.1-13.4-18.1-25.5-30.4-35.2
					c-0.1,0.1-0.2,0.3-0.3,0.4c-2.6,6.1-4,12.6-5.2,19.2c-1.4,7.7-2.8,15.6-3.1,23.5c-0.4,10.5,2.1,21,7.7,29.9
					c5.5,8.8,16.5,16,23.7,4.8c2.8-4.4,4.4-9.6,6.3-14.4c2.5-6.4,4.8-12.8,7.1-19.2C366.2,67.7,379,14.3,387.6-39.9
					c4.8-30.2,8.2-60.7,9.9-91.2c0.3-5-1.6,3.9-1.7,4.4C394.5-120.9,393.3-114.9,393-109.1L393-109.1z"/>
			</g>
		</g>
		<g class="st6">
			<g>
				<path d="M402.2,136.7c-0.7,37.8-1.4,75.6-2.1,113.3c0,0,2.9-3.2,2.6-2.8c1.9-2.4,3.7-4.9,5.5-7.4c1.8-2.5,3.5-5,5.2-7.6
					c0.6-0.9,1.8-2.3,1.9-3.4c0.7-37.8,1.4-75.6,2.1-113.3c0,0-2.9,3.2-2.6,2.8c-1.9,2.4-3.7,4.9-5.5,7.4c-1.8,2.5-3.5,5-5.2,7.6
					C403.5,134.2,402.2,135.6,402.2,136.7L402.2,136.7z"/>
			</g>
		</g>
		<g class="st6">
			<g>
				<path d="M437.6,52.1c3.1,63.7,6.1,128.3-6,191.3c-1.7,8.8-3.7,17.5-6,26.1c-1.2,4.5-2.5,8.9-3.9,13.3c-0.3,0.8-0.4,1.9-0.8,2.6
					c-1,1.9-0.2,1.4-2.3,1.5c-2.2,0-4.8-0.9-6.9-1.3c0.3,0.5,0.6,1.1,0.8,1.6c-1.5-3.6,0.7,1.4,0.6,2.3c0.1-1.5-0.9-3.5-1.2-5
					c-0.8-4-1.5-8-2-12.1c-0.9-7.9-1.2-15.9-0.8-23.8c0.5-9.7,1.7-24.8,12.2-29.3c3.2-1.4,4.6-0.3,7.2,1.8c2.6,2,5,4.3,7.2,6.8
					c4.7,5.2,8.5,11.2,11.9,17.4c6.9,12.9,12.2,26.7,17.3,40.4c5.3,14.4,9.4,29.2,13,44.1c1.1,4.8,2.7,9.4,4.2,14.1
					c0.6,1.8,1.2,3.6,1.9,5.4c0-0.1,1.6,3.1,1.6,3.5c3.8-83.3,8.6-166.5,14.5-249.7c1.6-23.5,3.4-47,5.2-70.6
					c0.3-3.8-2.2-9-3.4-12.6c-0.9-2.9-1.9-5.8-3-8.7c-0.3-0.8-1.6-2.9-1.6-3.5c-6.4,83.1-11.8,166.3-16.1,249.6
					c-1.2,23.5-2.4,47.1-3.5,70.7c2.6,7.7,5.1,15.3,7.7,23c-9.1-38.5-21.4-76.5-37.1-112.8c-5.9-13.5-12.4-27.4-23.1-37.8
					c-2.2-2.1-6-6.3-9-6.6c-2.6-0.2-5.8,2.4-7.5,4.2c-4.3,4.6-6.1,11.4-6.9,17.5c-2.2,17.1-0.6,34.8,3.4,51.4
					c2.6,10.7,6,21.3,9.6,31.7c0.8,2.2,1.6,4.5,2.5,6.7c0.4,1.1,1.1,4.4,2.2,5.2c1,0.8,4,0.7,5.2,1c0,0,3.2,0.8,3.5,0.6
					c0.7-0.4,1.2-3.7,1.4-4.4c10.9-35,16-71.6,17.8-108.2c2-41.1,0.1-82.3-1.8-123.4c-0.2-5-2.9-10.6-4.5-15.3
					c-0.8-2.4-1.5-5-2.6-7.3C438.3,52.9,437.5,50.8,437.6,52.1L437.6,52.1z"/>
			</g>
		</g>
		<g class="st6">
			<g>
				<path d="M505.8,110.8c-10.1,68.2-17.5,136.7-22,205.5c-1.3,19.4-2.3,38.8-3.1,58.3c8.4,2.1,16.8,4.2,25.2,6.3
					c3.6-96.5,7.1-193,10.7-289.5c1-27.3,2-54.6,3-81.9c-8.4-2.1-16.8-4.2-25.2-6.3c6.8,36.6,13.5,73.2,20.3,109.8
					c1.7,9.2,3.4,18.3,5.1,27.5c1.6,8.4,2.7,17.1,4.8,25.4c1.4,5.3,3.7,11.2,8.7,14c3.7,2.1,8.4,2.9,12.5,4
					c5.3,1.4,10.8,2.8,16.3,3.3c0.2,0,0.3,0,0.5-0.1c15.6-71.3,23.2-144.3,22.4-217.3c0-1.3-11.2-3.5-12.4-3.8
					c-0.9-0.2-12.7-2.9-12.8-2.5c-8,84.3,4.6,168.5,13,252.3c2.4,23.7,4.4,47.4,5.6,71.2c8.4,2.1,16.8,4.2,25.2,6.3
					c-22.4-23.8-44.7-47.7-66.9-71.7c-11-11.9-22-23.8-32.9-35.6c-8.6-9.4-23.6-21.4-20.4-35.8c0.3-1.2-25-7.1-25.2-6.3
					c-3.2,14.4,11.8,26.4,20.4,35.8c11,11.9,21.9,23.8,32.9,35.7c22.2,24,44.5,47.9,66.9,71.7c2.3,2.4,9.3,3,12.4,3.8
					c0.9,0.2,12.8,2.6,12.8,2.5c-4.2-84.4-19.4-167.9-21-252.4c-0.5-23.7,0.2-47.4,2.5-71c-8.4-2.1-16.8-4.2-25.2-6.3
					c0.4,36.5-1.3,73-5,109.3c-1.8,18-4.2,35.9-7.1,53.8c-1.4,8.9-3,17.8-4.7,26.7c-0.8,4.4-1.7,8.9-2.6,13.3
					c-0.5,2.2-0.9,4.4-1.4,6.6c-0.7,3.4-3,7,2.4,8.2c5.7,1.5,11.5,3,17.2,4.6c-4.8-1.7-7.2-8.2-8.4-12.6c-2-6.7-2.8-13.9-4.1-20.8
					c-3-16-5.9-32-8.9-48.1c-5.9-31.7-11.7-63.4-17.6-95.1c-0.3-1.6-10.9-3.4-12.4-3.8c-0.9-0.2-12.8-2.8-12.8-2.5
					c-3.6,96.5-7.1,193-10.7,289.5c-1,27.3-2,54.6-3,81.9c0,1.2,11.2,3.5,12.4,3.8c0.9,0.2,12.8,2.8,12.8,2.5
					c2.9-68.9,8.6-137.6,17.2-206c2.4-19.3,5.1-38.6,7.9-57.8C531.3,115.3,505.8,110.6,505.8,110.8L505.8,110.8z"/>
			</g>
		</g>
		<g class="st6">
			<g>
				<path d="M620.8,18.9c-1-1.7-2.1-3.4-3.1-5.1c-1.5-2.5-26-0.5-26-0.6c0.4,28.6,7.8,56.8,21.6,81.8c6.9,12.6,15.4,24.4,25.3,34.9
					c4.9,5.2,8.8,8.7,16.1,9.2c6.1,0.5,12.3,0.6,18.4,0.4c3.1-0.1,6.1-0.2,8.7-2.2c5.8-4.6,9-14.7,11.3-21.4
					c2.9-8.5,4.6-17.2,5.3-26.2c0-0.6-25.9-2.1-26-0.6c-0.7,9.5-2.6,18.9-5.9,27.8c-1.6,4.5-3.6,8.8-5.9,13c-1.6,2.9-4,7.9-7.9,8.2
					c7.5,0.2,15,0.3,22.5,0.5c-5.4-0.7-10.5-8.1-13.8-11.9c-4-4.5-7.7-9.2-11.2-14c-6.8-9.5-12.6-19.7-17.3-30.4
					c-9.6-21.6-14.8-45-15.1-68.7c-8.7-0.2-17.3-0.4-26-0.6c1,1.7,2.1,3.4,3.1,5.1c1.1,1.8,11.1,1,13,1c3.1,0.1,6.1,0.1,9.2,0
					C617.3,19.3,620.8,19,620.8,18.9L620.8,18.9z"/>
			</g>
		</g>
		<g class="st6">
			<g>
				<path d="M590,21.3c0.3,66.9,1.8,133.8,4.3,200.7c0.7,19.2,1.5,38.4,2.4,57.6c0.1,2.3,25.6,4.8,25.5,4.8
					c4.3-37.4,8.6-74.8,12.9-112.1c-8.5-1.6-17-3.2-25.5-4.8c6.5,71.7,13.3,144.7,40.6,212.1c0.8,1.9,10.8,2.7,12.7,3.1
					c1,0.2,12.9,1.6,12.9,1.7c-6.4-32.5-40.1-45.3-68.7-51.6c-36.8-8.2-74.6-12.4-112.3-10.2c-15.9,0.9-32.4,2.3-47.7,6.7
					c-6.4,1.9-12.7,4.5-18.1,8.4c-2.6,1.9-5,4.2-7,6.7c-0.5,0.6-2.5,2.7-2.4,3.5c0.1,1,4.1,3.3,5,3.9c13.4,9.3,30.5,12.3,46.2,15.2
					c18.9,3.5,38,5.8,57.1,7.4c41.5,3.3,83.1,5.3,124.7,7.8c0.2,0,0.3-0.1,0.5-0.1c-12.6-19.8-33.9-31.4-56.1-37.2
					c-30.8-8.1-61.6-9.8-93.2-9.2c-1.6,0,1.6,0.9,1.2,0.8c2.3,0.9,5.2,1.3,7.6,1.8c5,1,10.6,2.6,15.8,2.5c9.9-0.2,19.8-0.4,29.7-0.1
					c5,0.1,9.9,0.4,14.9,0.9c1.1,0.1,4.7,1,5.5,0.6c0,0-3.1-0.6-3.1-0.6c0.5,0.5,3.4,0.9,3.9,1.1c15.2,4.6,29.7,12.7,40.5,24.4
					c1.8,2,5.9,5.6,6.6,8.3c0.7,2.7-3.2,1.5-5.2,1.4c-2.6-0.2-5.3-0.3-7.9-0.5c-10.2-0.6-20.4-1.2-30.6-1.9
					c-20.1-1.2-40.2-2.4-60.4-3.7c-9.9-0.6-19.9-1.4-29.7-2.4c-4.4-0.4-8.9-0.9-13.3-1.5c-2.3-0.3-4.6-0.6-6.9-1
					c-0.3,0-3.1-0.5-1.9-0.3c2.1,0.4,0.1,0-0.3-0.1c-1-0.3-2.1-0.6-3.1-0.9c-1.9-0.6-3.7-1.2-5.5-2c-4.2-1.7-8.4-3.8-12.1-6.5
					c-0.9-0.6-4.3-2.5-4.3-3.5c-0.1-1,2.6-3.9,3.2-4.6c2.4-2.8,5.3-5.2,8.4-7.2c13.8-8.8,31.4-10.5,47.2-12.1
					c19.6-2,39.3-2.5,59-1.1c18.3,1.2,36.3,3.4,53,11.4c16.5,8,30.5,22,34.2,40.4c8.5,1.6,17,3.2,25.5,4.8
					c-27.2-67.4-34.1-140.4-40.6-212.1c-0.2-2.4-25.6-4.7-25.5-4.8c-4.3,37.4-8.6,74.8-12.9,112.1c8.5,1.6,17,3.2,25.5,4.8
					c-3.1-66.9-5.2-133.8-6.1-200.7c-0.3-19.2-0.5-38.4-0.6-57.7c0-1.2-11.5-2.9-12.7-3.1C602,22.9,590,21,590,21.3L590,21.3z"/>
			</g>
		</g>
		<g class="st6">
			<g>
				<path d="M-192.9,532.5c13.1,11,30.8,2.2,44.3-3.3c6.5-2.6,12.8-5.5,17.9-10.4c5.2-5.1,8.4-11.9,10.3-18.9
					c4.4-16.4,2.2-34.3,0.2-50.9c-2.2-18.1-5.8-36-10.7-53.5c-2.8-10.1-6.1-20.1-9.7-29.9c-2.5-6.6-5.5-16.7-14.3-15.8
					c-5,0.5-10.4,3.5-15.1,5.4c-2.4,0.9-4.9,1.8-7.2,3c-0.3,0.1-2.3,1-1.1,0.9c6.7-0.7,10,7.3,12,12.4c2.8,7.2,5.3,14.5,7.6,21.9
					c4.8,15.3,8.6,30.9,11.4,46.8c2.6,15,4.6,30.4,4.9,45.7c0.3,13.4-1.3,28-9.6,39c-2.1,2.8-4.8,5.2-7.7,7.2
					c-3.4,2.3-10,4.5,4.7-1.1c2.7-1,5.4-2,8.1-3.1c-0.4,0.1-0.8,0.2-1.2,0.3c-0.8,0.1-1.7,0.3-2.5,0.4c-6.6,0.8-12.9-1-18-5.2
					c-1.3-1.1-10.8,3.5-12.3,4.1C-182.1,527.8-192.4,533-192.9,532.5L-192.9,532.5z"/>
			</g>
		</g>
		<g class="st6">
			<g>
				<path d="M-182.8,546.9c19.7,45.7,43.5,89.4,71.1,130.8c-1.8-8.5-3.6-17-5.4-25.4c-16.5-24.6-31-50.5-43.3-77.5
					c1.7,8.3,3.4,16.7,5.1,25c3.8-1.9,7.6-0.5,11.4,0.8c5.3,1.7,10.7,3.5,16,5.2c10.4,3.4,20.7,6.7,31.1,10.1
					c20.7,6.7,41.5,13.4,62.2,20.2c-0.1,0-1.6-10.7-1.7-11.2c-0.9-4.4-1.4-9.8-3.5-13.8c-9-17.5-27-28.9-43.7-38.1
					c-18.8-10.4-39.1-17.7-60.1-22c0,0,1.8,11.8,2,12.9c0.3,1.5,1.6,12.2,3.4,12.6c20.4,4.2,40.2,11.3,58.5,21.2
					c16.8,9.1,35.6,20.5,44.7,38.1c-1.7-8.3-3.4-16.7-5.1-25c-20.7-6.7-41.5-13.4-62.2-20.2c-10.1-3.3-20.1-6.5-30.2-9.8
					c-5.3-1.7-10.7-3.5-16-5.2c-4.1-1.3-8.3-3.1-12.4-1.1c-1,0.5,1.6,10.5,1.7,11.2c0.9,4.5,1.5,9.7,3.4,13.8
					c12.5,27.2,27.2,53.4,43.9,78.3c-0.1-0.2-0.3-4-0.3-3.8c-0.5-3-1.1-6-1.7-9c-0.8-3.8-1.1-9.2-3.4-12.6
					c-27.4-41.1-51-84.6-70.5-130c-0.6-1.5-0.2,1.9-0.2,1.4c0.1,2.5,0.8,5.3,1.3,7.7C-185.6,536.4-184.9,542.1-182.8,546.9
					L-182.8,546.9z"/>
			</g>
		</g>
		<g class="st6">
			<g>
				<path d="M-117.2,496.3c13.6,18.6,25.8,38.2,36.5,58.5c0.3,0.5,3.7,0.9,3.7,0.9c3,0.5,6.1,0.9,9.1,1.2s6.1,0.7,9.2,0.9
					c0.4,0,3.8,0,3.8,0c-10.8-20.4-23-39.9-36.5-58.5c-0.4-0.6-3.6-0.9-3.7-0.9c-3-0.5-6.1-0.9-9.1-1.2c-3-0.4-6.1-0.7-9.2-0.9
					C-113.9,496.3-117.2,496.4-117.2,496.3L-117.2,496.3z"/>
			</g>
		</g>
		<g class="st6">
			<g>
				<path d="M-99.7,449.4c11.2,7.3,15.3,23,19.6,34.9c5.2,14.2,9.6,28.8,13.3,43.5c3.6,14.7,6.5,29.7,8.5,44.7
					c1,7.4,1.8,14.8,2.3,22.2c0.3,3.7,0.5,7.4,0.7,11.1c0.1,2.2,0.2,4.3,0.3,6.5c0.1,2.5,1.3,4.8-1.9,5.3c3,0.2,6,0.3,9.1,0.5
					c-0.4,0-0.9-0.1-1.3-0.1c5.3,0.7,10.6,1.3,15.9,2c-7.3-2.2-10.9-11.8-13.6-18.2c-3-6.9-5.3-14.1-6.7-21.4
					c-2.1-10.4-6.2-31,7.1-35.9c1-0.4,2-0.7,3.1-0.8c-16.1-2.5-20.8-2.9-14.2-1.3c1.5,0.5,3,0.9,4.4,1.4c3.7,1.2,7.4,2.7,10.9,4.4
					c6,2.9,11.7,6.3,17,10.3c11.1,8.3,20.4,18.7,27.4,30.7c0.3,0.5,3.8,0.8,3.8,0.8c3,0.4,6.1,0.8,9.1,1.1c1,0.1,13,0.6,13,0.7
					c-14.8-61.7-50.7-115-85.8-166.8c-0.3-0.5-3.7-0.8-3.8-0.8c-3-0.4-6.1-0.8-9.1-1.1c-3.1-0.3-6.1-0.6-9.2-0.7
					c-0.4,0-3.8,0.1-3.8,0c35.2,51.8,71,105.1,85.8,166.8c8.6,0.8,17.2,1.7,25.9,2.5C16,571.1-3,555.1-25.3,546.8
					c-5.8-2.2-11.7-3.5-17.9-4.3c-8.4-1.1-18.5-3.2-26.9-1.4c-12.9,2.8-12,17.9-10.8,28.1c1.6,13.2,5.6,26,11.9,37.7
					c2.5,4.7,5.4,9.2,10.8,10.8c5,1.4,10.7,1.5,15.9,2c3,0.3,8.9,1.8,11.9,0.3c2.3-1.2,0.9,0.2,1.5-2.5c0.4-1.6-0.1-4-0.2-5.6
					c-0.2-3.7-0.4-7.4-0.6-11.1c-0.5-7.4-1.2-14.8-2.2-22.2c-1.8-14.1-4.2-28.2-7.4-42.1c-3.6-15.7-8.1-31.2-13.5-46.4
					c-2.6-7.4-5.3-14.7-8.5-21.9c-2.8-6.5-6.3-12.5-12.4-16.5c-3-1.9-9.5-1.5-12.9-1.8c-3.1-0.3-6.1-0.6-9.2-0.7
					C-96.6,449.3-99.3,449.7-99.7,449.4L-99.7,449.4z"/>
			</g>
		</g>
		<g class="st6">
			<g>
				<path d="M-33.8,418.4C-15,479,3.9,539.7,22.7,600.3c0.2,0.5,3.5,1.6,3.5,1.6c2.8,1.1,5.7,2.2,8.6,3.2s5.8,2,8.7,2.9
					c0.4,0.1,3.7,0.8,3.7,0.9C30.1,548,4.7,489.7-28.2,435.8c-9.3-15.3-19.3-30.2-29.8-44.7c-0.5-0.7-3-1.4-3.5-1.6
					c-2.8-1.1-5.7-2.2-8.6-3.2s-5.8-2-8.7-2.9c-0.5-0.2-3.6-0.6-3.7-0.9c25.8,40,54.3,78.1,85.3,114.2c1.7,1.9,24.1,9.5,24.6,8.5
					c6.1-11.8,4.2-25.1,1.7-37.6c-2.9-14.3-6.4-28.5-10.5-42.6c-8-27.8-18.1-55-30.3-81.3c-8.2-2.8-16.4-5.7-24.6-8.5
					c21.1,36,44.1,71,68.8,104.7c6.1,8.3,12.3,16.5,18.6,24.6c2.9,3.7,5.8,7.4,8.7,11c1.4,1.8,3.7,3.8,4.7,5.8
					c1.3,2.7,1.4,1-0.7,1.6c-1.5,0.4-4,0.2-5.5,0.4c-20.3,1.5-40.4,4.7-60.2,9.5c-11.4,2.8-22.6,6.1-33.7,9.9
					c-5.2,1.8-10.4,3.8-15.6,5.8c-5.1,2-10.9,5.7-16.4,6.2c0.6,0.1,1.2,0.2,1.8,0.3c-0.5-0.1-1-0.2-1.4-0.4
					c7.6,2.7,15.2,5.5,22.8,8.2c-1.6-1.2-2.2-3.8,0-4.6c0,0-4-1.8-3.5-1.6c-2.8-1.1-5.7-2.2-8.6-3.2c-2.9-1-5.8-2-8.7-2.9
					c-0.9-0.3-2.8-1.2-3.7-0.9c-3.5,1.3-0.3,4.5,1.6,5.4c3.8,1.8,8.1,3.1,12.2,4.5c3.6,1.2,7.9,3.2,11.8,3.5
					c4.4,0.3,9.5-3.1,13.5-4.8c5.4-2.2,10.9-4.3,16.4-6.3c21.5-7.6,43.7-13.3,66.2-16.8c11.2-1.8,22.6-3,34-3.8
					c0.6,0,1.2-0.1,1.8-0.1c1.9,0.4,2.3,0.1,1.3-0.8c-0.2-0.9-1.7-2.1-2.3-2.9c-1.8-2.2-3.5-4.4-5.2-6.6c-3.9-4.9-7.7-9.8-11.5-14.8
					c-14-18.3-27.5-37-40.4-56.1c-14.7-21.7-28.7-43.9-41.9-66.5c-0.4-0.6-3.2-1.5-3.5-1.6c-2.8-1.1-5.7-2.2-8.6-3.2s-5.8-2-8.7-2.9
					c-0.5-0.1-3.7-0.7-3.7-0.9c12.1,26.3,22.3,53.5,30.3,81.3c4,13.8,7.4,27.7,10.3,41.7C6.8,471,9,484.7,2.7,496.8
					c8.2,2.8,16.4,5.7,24.6,8.5C-3.7,469.2-32.2,431-58,391.1c-8.2-2.8-16.4-5.7-24.6-8.5c37,51.2,67,107.4,88.8,166.7
					c6.2,16.8,11.7,33.9,16.5,51.1c8.2,2.8,16.4,5.7,24.6,8.5C28.4,548.2,9.6,487.6-9.2,426.9c-0.2-0.5-3.5-1.6-3.5-1.6
					c-2.8-1.1-5.7-2.2-8.6-3.2s-5.8-2-8.7-2.9C-30.5,419.1-33.8,418.4-33.8,418.4L-33.8,418.4z"/>
			</g>
		</g>
		<g class="st6">
			<g>
				<path d="M30.5,328.9c23.5-12.2,45.2-27.6,64.5-45.8c-0.3,0.2-3.8,1-3.7,1c-2.9,1-5.8,2.1-8.6,3.2c-3.6,1.4-9.1,2.5-11.9,5.2
					c-19,18-40.5,33.2-63.7,45.2c-1.5,0.8,2.1-0.3,1.4-0.1c2.4-0.6,5-1.7,7.3-2.6C20.6,333.1,25.8,331.3,30.5,328.9L30.5,328.9z"/>
			</g>
		</g>
		<g class="st6">
			<g>
				<path d="M-2.2,324.3C12,355.3,29.5,384.7,50,412c2,2.7,4,6,6.4,8.2c4.7,4.5,11.8,7.5,17.5,10.5c2.4,1.3,5.4,3.7,7.2,0.5
					c1.5-2.6,0.4-6.4-0.1-9.2c-2.7-16.2-7.1-32.2-13.2-47.4C61,357.4,52,341.2,41.3,326.2c-2.2-3-7.8-5.2-11-7c-2.6-1.5-5.3-3-8-4.5
					c-0.4-0.2-3.5-1.4-3.5-1.5c7.4,23.5,24.3,41.9,42.9,57.3c9.7,8,19.9,15.5,30.2,22.7c7.1,4.9,14.5,9.3,22.1,13.4
					c5.7,3.1,12.4,7,19.2,6.1c4.9-0.7,9.9-4.1,11.3-9c2-7-4.6-10.8-9.6-13.8c-6.5-4-14.1-9.8-21.8-11.1c-6.7-1.1-12.9,2.5-18.3,6
					c-23.1,14.7-40.9,36.1-57,57.9c-18,24.2-34.8,49.5-49.8,75.7C-26,543-38.4,569.5-43,597.8c-2.2,13.7-2.5,27.8,0,41.5
					c2,11.2,5.8,22.8,15.3,29.9c7,5.2,15,9.7,22.9,13.5c5.6,2.7,11.3,3.9,17.4,2.6c12.5-2.7,22.6-12.7,30.6-22.1
					c39.3-46.3,66-102.9,77.3-162.4c0.2-1.3-9.8-6.4-10.9-7c-0.9-0.5-11.6-5.9-11.6-6c-7,37-19.9,72.7-38.2,105.7
					C50.6,610.1,40,626.1,28.2,641C18,653.9,4.9,671-12.8,672.7c-1.9,0.2-3.9,0.2-5.8-0.1c-1.3-0.2-2.6-0.8-3.9-1
					c30,4.6,19,13.2,14.4,8.2c-3.2-3.5-5.8-6.8-7.8-11.2c-3.7-8.3-5.3-17.6-6.1-26.6c-1.7-19.5,1.8-39.1,7.9-57.6
					c12.9-38.9,36.2-74.5,59.4-107.9c12.6-18.2,25.7-36.3,40.9-52.4c7.4-7.8,15.3-15.1,24-21.5c4.1-3,8.3-5.9,12.8-8.2
					c2.4-1.2,5-2.3,7.7-2.6c1-0.1,2-0.2,3-0.2c2.1,0.1,6.3,2.3,0.6-0.8c-5.1-3-10.2-6.1-15.3-9.1c5.3,3.7,3.2,10.9-0.9,14.5
					c-2.1,1.9-4.8,3.1-7.6,3.5c-4.7,0.6-13.9-4.4-3.2,2c11.9,7,1.1,0.1-1.6-1.8c-2.4-1.7-4.7-3.4-7.1-5.1c-5-3.7-9.9-7.5-14.8-11.5
					c-18.7-15.3-35.4-33.6-42.8-57.1c-7.5-4.3-15-8.7-22.5-13c11.9,16.7,21.7,34.8,28.8,54.1c2.2,6,18,51.7,8.5,52.6
					c7.5,4.3,15,8.7,22.5,13c-23.1-29.5-42.6-61.5-58.2-95.6c-0.4-0.8-2.6-2-3.1-2.3c-2.6-1.7-5.2-3.2-7.9-4.8c-2.7-1.5-5.3-3-8-4.5
					C0.8,325.6-2,324.6-2.2,324.3L-2.2,324.3z"/>
			</g>
		</g>
	</g>
	<g class="st2">
		<path class="st4" d="M634.1-146.6c6.9,0,12.5,5.6,12.5,12.5v768.2c0,6.9-5.6,12.5-12.5,12.5h-768.2c-6.9,0-12.5-5.6-12.5-12.5
			v-768.2c0-6.9,5.6-12.5,12.5-12.5L634.1-146.6 M634.1-171.6h-768.2c-20.7,0-37.5,16.8-37.5,37.5v768.2c0,20.7,16.8,37.5,37.5,37.5
			h768.2c20.7,0,37.5-16.8,37.5-37.5v-768.2C671.6-154.8,654.8-171.6,634.1-171.6L634.1-171.6z"/>
	</g>
</g>
<g id="Livello_7">
	<path class="st7" d="M427,500H73c-40.3,0-73-32.7-73-73V73C0,32.7,32.7,0,73,0h354c40.3,0,73,32.7,73,73v354
		C500,467.3,467.3,500,427,500z"/>
</g>
<g id="Livello_4">
	<g id="Livello_8">
	</g>
	<g id="Livello_6">
		<rect x="-10.5" y="-10.9" width="521.1" height="521.9"/>
		<g>
			<g>
				<g>
					<path class="st8" d="M125.1,371.4c32.7-29.7,63.7-61.3,95-92.4c31.5-31.2,62.9-62.6,94.4-93.8c17.9-17.7,35.6-35.7,53.4-53.6
						c-1.2-3-2.5-6-3.7-9c-1.8,2-3.6,4-5.5,6.1c-2.7,3-0.3,13,3.7,8.9c4.4-4.5,8.8-9,13.2-13.5c2.9-3,0.2-12.7-3.6-8.8
						c-28.3,28.4-56.8,56.6-85.3,84.9c-28.6,28.4-57.4,56.5-84.9,85.9c-2.2,2.4-0.4,10.3,2.9,7.2c29.4-27.2,57.4-55.7,85.6-84
						c28.4-28.4,56.7-56.8,85.2-85.1c-1.2-2.9-2.4-5.9-3.6-8.8c-4.4,4.4-8.8,8.9-13.2,13.4c1.2,3,2.5,5.9,3.7,8.9c1.8-2,3.7-4,5.5-6
						c2.8-3,0.4-13-3.7-9c-63.1,62.6-125.7,125.7-188.4,188.8c-17.9,18-35.7,36.2-52.8,55C121.6,368,122.7,373.6,125.1,371.4
						L125.1,371.4z"/>
				</g>
			</g>
			<g>
				<g>
					<path class="st8" d="M377.2,117c-72.4-0.9-144.7-3.7-217.1-4c-20.6-0.1-41.1-0.2-61.7,0.2c-4.5,0.1-4.3,10.1,0.2,10.2
						c72.3,1.4,144.7-0.2,217-2.7c20.6-0.7,41.1-0.8,61.7-1C378.4,119.6,378.4,117,377.2,117L377.2,117z"/>
				</g>
			</g>
			<g>
				<g>
					<path class="st8" d="M100.7,118.6c6.4,9.6,15.8,17.7,23.9,25.9c8,8.1,16,16.2,23.9,24.2c16.4,16.6,32.9,33.1,49.4,49.6
						c32.9,33,65.8,66.1,98.7,99.1c18.7,18.8,37.5,37.6,56.7,55.9c3.7,3.5,5.5-5.6,3-8.3c-32.3-33.7-65.6-66.3-98.7-99.3
						c-32.7-32.6-65.5-65.2-98.2-97.9c-9.2-9.1-18.4-18.2-27.6-27.3c-4.7-4.7-9.4-9.4-14.2-14c-4.6-4.5-9.1-9.4-14.6-12.8
						C100.2,112.3,99.7,117,100.7,118.6L100.7,118.6z"/>
				</g>
			</g>
			<g>
				<g>
					<path class="st8" d="M131.3,374.1c7.8,2.7,17.2,1.5,25.3,1.7c8.9,0.2,17.9,0.1,26.9,0.2c17.9,0.1,35.8,0.2,53.7,0.3
						c35.5,0.2,71,0.4,106.5,0.5c20.2,0,40.5,0.1,60.7,0.2c4.3,0,4.1-9.8-0.2-9.8c-18.6,0-37.2-0.1-55.7-0.1
						c0.1,3.4,0.2,6.7,0.2,10.1c9.9,0,19.7,0.2,29.5-0.9c3.8-0.4,3.5-8-0.2-8.4c-9.9-1-19.7-0.9-29.6-0.9c-4.5,0-4.3,10.1,0.2,10.1
						c18.6,0,37.1-0.1,55.7-0.1c-0.1-3.3-0.2-6.5-0.2-9.8c-71.3,0.2-142.6,0.5-213.9,0.9c-9.9,0-19.9,0-29.9,0.2
						c-5,0-9.9,0.2-14.9,0.2c-5,0.1-9.6-0.2-14.3,1.5C129.7,370.4,129.9,373.6,131.3,374.1L131.3,374.1z"/>
				</g>
			</g>
			<g>
				<g>
					<path class="st8" d="M371.1,384.5c2-41.8,1.7-83.8,1.8-125.6c0.1-41.9,0.2-83.7,0.2-125.6c0-23.9,0.2-47.8-0.2-71.7
						c-2.5,0.1-4.9,0.1-7.4,0.2c0,1.5,0,3.1,0.1,4.7c0.1,6.8,7.1,6.6,7.3-0.2c0-1.6,0-3.1,0.1-4.7c0-2.1-1.2-5.6-3.9-5.6
						c-2.7,0.1-3.5,3.7-3.6,5.7c-0.7,41.8-0.2,83.7-0.1,125.6c0.1,41.9,0.2,83.7,0.5,125.5c0.2,23.9,0.3,47.8,1.4,71.7
						C367.4,388.2,370.9,388.1,371.1,384.5L371.1,384.5z"/>
				</g>
			</g>
			<g>
				<g>
					<path class="st8" d="M130,382.7c0.1-9.3,1.1-18.6,1.3-28c0.1-9.6,0.2-19.3,0.2-28.9c0.1-19,0.1-37.9,0.2-56.9
						c0.1-37.6,0.1-75.1,0.1-112.7c0-21.6,0.2-43.2-0.1-64.8c-0.1-6.9-7.2-6.6-7.3,0.2c-1.2,75.4-0.1,151,0.1,226.4
						c0,10.6,0.1,21.3,0.2,31.9c0.1,11,1.2,22,1.3,32.9C126.1,386.5,130,386.3,130,382.7L130,382.7z"/>
				</g>
			</g>
			<g>
				<g>
					<path class="st8" d="M113.7,106.9c-2.1,9.2-1.4,19.3-1.5,28.7c-0.1,10-0.2,19.9-0.3,29.9c-0.1,19.6-0.2,39.2-0.2,58.8
						c0,39.5-0.1,79.1-0.1,118.6c0,22.6-0.2,45.2,0.6,67.8c0.2,6.2,6.4,5.9,6.6-0.2c1.3-39.5,0.6-79.1,0.6-118.6
						c0-39.5,0-79.1-0.2-118.6c-0.1-11.3-0.1-22.6-0.3-33.9c-0.1-10.6,0.8-22.2-1.6-32.6C116.6,104.2,114.3,104.4,113.7,106.9
						L113.7,106.9z"/>
				</g>
			</g>
			<g>
				<g>
					<path class="st8" d="M123.6,255.5c38.7,2.4,77.7,1.7,116.5,2c38.8,0.3,77.6,0.4,116.4,0.5c21.9,0.1,43.8,0.6,65.7-0.4
						c-0.1-3.3-0.2-6.6-0.2-9.9c-2.4,0.1-4.8,0.2-7.3,0.4c-4.1,0.2-3.9,9,0.2,9.2c2.4,0.1,4.9,0.2,7.3,0.4c4.3,0.2,4.2-9.7-0.2-9.9
						c-38.7-1.8-77.7-0.3-116.4-0.1c-38.8,0.2-77.6,0.4-116.4,0.8c-21.9,0.2-43.8,0.2-65.6,1.6C121,250.1,121.2,255.4,123.6,255.5
						L123.6,255.5z"/>
				</g>
			</g>
			<g>
				<g>
					<path class="st8" d="M252.2,370.7c0.3-3.6,1.4-7,1.6-10.6c0.3-4.6,0.3-9.3,0.4-14c0.1-8.3,0.2-16.6,0.2-24.9
						c0-16.9,0.1-33.9,0.1-50.8c0.1-33.9,0.1-67.8,0.1-101.6c0-19.2,0.9-38.6-0.4-57.8c-0.4-6.3-6.3-6-6.7,0.2
						c-1.1,16.9-0.4,33.9-0.4,50.8c0,16.6,0,33.2,0,49.8c0,33.5,0.1,67.1,0.2,100.6c0,9.6,0.1,19.3,0.2,28.9c0,4.6,0.1,9.3,0.2,13.9
						c0.2,5.1,1.3,9.9,1.8,14.9C249.6,372.1,251.9,373.3,252.2,370.7L252.2,370.7z"/>
				</g>
			</g>
			<g>
				<g>
					<path class="st8" d="M140.3,265.1c0,10.9,0.6,21.7,0,32.5c-0.5,9.2-1.1,18.4,3.2,26.9c1.4,2.7,3.7,3.6,5.7,1
						c4.7-6,9.5-12,15.4-16.9c5.4-4.6,11.9-7.8,16.9-12.7c4.7-4.6,7.9-10.5,12.9-14.7c4.9-4.1,11.4-5.4,15.9-10.2
						c2.5-2.6,2.9-11.6-2.3-11.5c-5.2,0.1-10.4,0.5-15.5,1.1c-4.7,0.6-10.2,0.9-14.4,3.2c-3.7,2.1-3.7,10.7,1.3,11.1
						c4.6,0.4,9.7-1.4,14.4-2c4.8-0.6,9.7-1,14.5-1.1c-0.8-3.8-1.6-7.6-2.3-11.5c-4.7,5-11.9,6.5-16.9,11.4
						c-4.8,4.6-8,10.6-12.9,15.2c-5.2,4.9-11.6,8.3-16.9,13.1c-5.8,5.2-10.7,11.5-15.5,17.7c1.9,0.3,3.8,0.6,5.7,1
						c-4.2-8-2.1-17.2-2.1-25.9c0-9.7-1.1-19.3-3.4-28.7C143.2,260.9,140.3,262.1,140.3,265.1L140.3,265.1z"/>
				</g>
			</g>
			<g>
				<g>
					<path class="st8" d="M140.7,241.2c20.4,2.6,40.7,3.1,61.3,3.1c4.5,0,4.3-10.2-0.2-10.2c-20.5-0.1-40.7,0.3-61.1,2.7
						C138.7,237.1,138.9,241,140.7,241.2L140.7,241.2z"/>
				</g>
			</g>
			<g>
				<g>
					<path class="st8" d="M168.5,238.7c3.2-4.1,3.3-10.8,3.3-15.8c0.1-5.6-0.3-12.1-3.3-16.9c-2.3-3.8-5.3,1-5.3,3.5
						c0,4.9,1.6,9.6,1.8,14.5c0.2,4.5-0.6,9,0.1,13.5C165.5,239.3,167.2,240.3,168.5,238.7L168.5,238.7z"/>
				</g>
			</g>
			<g>
				<g>
					<path class="st8" d="M194.2,220.8c-4.4-3.6-9.4-6.4-13.8-10c-4.5-3.7-8.8-7.4-13.2-11.2c-4.3-3.7-8.6-7.4-12.9-11.1
						c-4.2-3.7-8.5-9-13.7-11.3c-4.4-1.9-4.4,6.5-3,8.6c3.3,4.9,8.8,8.5,13.3,12.2c4.8,4,9.6,7.9,14.5,11.7c7.7,6,17.8,14.9,28,15.9
						C195.7,225.8,195.3,221.7,194.2,220.8L194.2,220.8z"/>
				</g>
			</g>
			<g>
				<g>
					<path class="st8" d="M235.6,226.5c-5.9-9.6-11.5-19-18.4-27.9c-6.8-8.7-14.1-17-21.7-25c-7.9-8.2-16.4-15.9-24.9-23.6
						c-8-7.3-16.2-14.3-25.7-19.6c-0.6,3.6-1.1,7.2-1.7,10.8c12.2,3.4,24.7,3.1,37.2,3.3c13.4,0.2,26.8,1.9,40.1,3.5
						c-1.4-2.1-2.8-4.1-4.3-6.2c0,1.6-4.5,4.3-5.6,5.1c-3.1,2.3-6.3,4.6-9.3,7c-5.9,4.7-11.5,9.7-16.9,14.9
						c-2.4,2.4-3.2,10.9,1.3,11.8c16.3,3.3,32.1,8.4,47.3,15.3c5.4,2.5,6.7-10,1.9-12.2c-15.1-7-30.9-12.2-47.2-15.6
						c0.4,3.9,0.9,7.9,1.3,11.8c7.1-6.9,14.6-13.4,22.5-19.4c6.8-5.2,12.9-9.6,13-18.9c0-2.6-1.4-5.8-4.3-6.2
						c-12.7-1.4-25.4-2.7-38.2-2.7c-12.4,0-25,0.9-37.1-2.4c-5.6-1.5-5.5,8.7-1.7,10.8c9.2,5.1,16.9,12.1,24.6,19.1
						c8.3,7.3,16.5,14.7,24.4,22.5c7.5,7.4,14.6,15.1,21.4,23.1c6.7,7.9,13.7,15.9,19.6,24.4C235.1,233,236.7,228.3,235.6,226.5
						L235.6,226.5z"/>
				</g>
			</g>
			<g>
				<g>
					<path class="st8" d="M272.4,200.8c-1.9-11.1-0.8-22.5-0.8-33.7c0-10.8-0.5-21.6-3.1-32.1c-1.2,2.5-2.4,5.1-3.6,7.6
						c23.3,0.8,46.5,1.9,69.8,3.9c-0.8-3.8-1.5-7.6-2.3-11.5c-11.9,9.4-24.7,18.2-35,29.4c-9.3,10.1-16.3,21.9-26.9,30.8
						c-4.1,3.4-1.3,15.4,4.6,11.2c11.2-8,17.9-20.7,26.9-30.8c10.1-11.4,22.9-20.5,34.7-30c3.2-2.6,2.4-11.1-2.3-11.5
						c-23.2-1.8-46.5-3-69.8-3.3c-3.3,0-4.2,5.3-3.6,7.6c2.9,10.7,3,21.6,3.5,32.6c0.5,10.7,1.6,21.1,4.2,31.4
						C269.8,206,272.9,203.7,272.4,200.8L272.4,200.8z"/>
				</g>
			</g>
			<g>
				<g>
					<path class="st8" d="M351.5,165.8c-3.2,1.2-5.5,4-8,6.2c-2.9,2.6-5.9,5.2-9,7.6c-5.8,4.6-11.9,8.9-17.9,13.2
						c-13.3,9.6-25.7,20.1-37.1,32c-2.9,2.9-2.8,11.1,2.4,11.6c6.1,0.6,11.8-1.1,17.5-3c6.4-2.1,12.8-3.8,19.4-5.1
						c12.7-2.6,25.7-4,38.6-5.3c-1.4-2-2.8-4-4.2-6.1c0.1,5.8,0.2,11.6,0.3,17.4c1.3-2.1,2.7-4.3,4-6.5c-14.9,1.2-29.9,2.8-44.6,5.4
						c-5.4,1-5.1,13,0.3,12.3c14.9-2,29.7-3.9,44.6-5c3-0.2,4.1-4,4-6.5c-0.1-5.8-0.4-11.6-0.6-17.4c-0.1-2.1-1.3-6.4-4.2-6.1
						c-12.9,1.5-25.8,2.8-38.6,5.4c-5.8,1.2-11.5,2.6-17.2,4.2c-6.6,1.9-12.8,4.3-19.7,3.6c0.8,3.9,1.6,7.7,2.4,11.6
						c11.6-12,24.4-22.6,37.8-32.6c6.2-4.6,12.4-9.2,18.2-14.4c5.5-4.9,11.9-10.5,14.2-17.6C354.6,169.2,354.1,164.8,351.5,165.8
						L351.5,165.8z"/>
				</g>
			</g>
			<g>
				<g>
					<path class="st8" d="M356.5,335.9c-7-5.1-13.9-9.9-20.4-15.7c-6.4-5.8-12.6-11.8-19.1-17.3c-13.3-11.3-27.9-21.3-39.3-34.7
						c-0.8,3.2-1.5,6.3-2.3,9.5c12.9-1,25.7-2.1,38.6-2.5c6.1-0.2,12.2-0.2,18.3,0c3.2,0.1,6.4,0.3,9.6,0.5c1.6,0.1,3.2,0.2,4.8,0.4
						c0.6,0.1,1.3,0.1,1.9,0.2c2.1,0.8,2.6,0.6,1.5-0.6c-0.6-1.2-0.8-1.2-0.4,0c0.2,0.9,0.3,1.9,0.4,2.8c0.2,1.4,0.3,2.7,0.4,4.1
						c0.2,3.1,0.3,6.3,0.4,9.4c0.1,6.3-0.1,12.6-0.4,18.9c-0.2,6.1-0.8,12.3-0.3,18.3c0.3,3.2,0.7,10.6,4.9,11.4
						c2,0.4,3.6-0.8,4.2-2.8c0-0.2,0.1-0.3,0.1-0.5c0.6-2.2,0.7-7.5-2.4-8.2c-0.1,0-0.2,0-0.3-0.1c-5.4-1.3-5.1,7.6-2.5,10.2
						c0.1,0.1,0.2,0.2,0.3,0.3c-0.1-3.2-0.2-6.5-0.2-9.7c-0.1,0.1-0.2,0.2-0.3,0.3c1.3,0,2.5-0.1,3.8-0.1c-0.1-0.1-0.3-0.3-0.4-0.4
						c0.6,1.2,1.2,2.3,1.9,3.5c-2.8-11.6-0.2-24.8-0.2-36.6c0-6.2-0.4-12.3-1.2-18.5c-0.5-4-0.8-10.8-5.4-12.5
						c-5-1.9-12.2-1.2-17.5-1.4c-6.4-0.2-12.9-0.2-19.3,0c-13.5,0.4-27,1.4-40.5,2.5c-3.9,0.3-4.4,7.1-2.3,9.5
						c11.8,13.6,26.4,23.8,40.5,34.8c6.9,5.4,13.4,11.4,20.1,17c6.3,5.2,13.7,11.2,21.8,13.2C357.8,341.8,358.1,337.1,356.5,335.9
						L356.5,335.9z"/>
				</g>
			</g>
			<g>
				<g>
					<path class="st8" d="M268.7,359.5c20.8,1.8,41.5,4.1,62.1,6.8c4.6,0.6,3.6-8.6,0.6-10.1c-5.2-2.7-10-5.8-14.5-9.5
						c-3.9-3.2-7.1-7.7-11.3-10.5c-4.1-2.8-10.5-1.6-15.1-1.4c-6.9,0.3-13.8,1-20.6,1.9c1.2,1.3,2.3,2.6,3.5,3.9
						c-1-6.3,1.4-12.8,1-19.2c-0.2-2.9-0.9-5.7-2-8.4c-0.8-2-3.6-5.4-3.4-7.6c-1.9,1.3-3.9,2.5-5.8,3.8c5.3,3.9,10.5,7.9,15.5,12.2
						c5,4.2,9.5,9,14.5,13.1c4.6,3.8,6.6-6.1,4.3-9c-8.5-10.3-19.8-19.1-30.5-27c-2.9-2.1-5.5,0.9-5.8,3.8
						c-0.4,3.6-0.1,6.9,1.2,10.2c1.2,3,3.3,5.8,4,9c1.5,7.1-0.9,14.8,0.2,22.1c0.2,1.5,1.6,4.1,3.5,3.9c6.2-0.8,12.4-1.5,18.6-1.8
						c5.5-0.3,12.2-1.9,16.3,2.3c7.4,7.4,15.5,13.4,24.8,18.1c0.2-3.4,0.4-6.7,0.6-10.1c-20.6-2.5-41.3-3.1-62-1.8
						C266.3,354.5,266.5,359.3,268.7,359.5L268.7,359.5z"/>
				</g>
			</g>
			<g>
				<g>
					<path class="st8" d="M233.9,356.1c-1.4-21.7-2.3-43.8-1.8-65.5c0.1-2.2-1.3-5.7-3.9-5.6c-2.8,0.1-3.6,3.7-3.6,5.8
						c-0.2,11.4,0.6,22.8,1.6,34.1c1,10.6,1.2,21.7,3.9,32C231,360,234.1,359.1,233.9,356.1L233.9,356.1z"/>
				</g>
			</g>
			<g>
				<g>
					<path class="st8" d="M212.8,351.1c-0.3-0.2-0.5-0.4-0.7-0.7c0.4,1.3,0.8,2.6,1.1,3.9c1-5.3,0.5-10.3-0.5-15.6
						c-0.3-1.5-1.4-3.7-3.3-3.6c-12.9,0.5-25.8,1.1-38.7,1.7c0.4,3.6,0.8,7.3,1.2,11c8.9-4.1,17.8-8.9,25.7-14.9
						c6.8-5.2,14.3-12.7,15.8-21.5c0.6-3.5-2.7-9.8-6.1-5.2c-2.5,3.4-3.9,7.2-6.8,10.5c-2.4,2.7-5.2,5.2-8.2,7.4
						c-6.9,5.3-14.7,9.4-22.6,13c-3.6,1.7-3.6,11.3,1.2,11c12.9-0.9,25.8-1.8,38.6-2.8c-1.1-1.2-2.2-2.4-3.3-3.6
						c0.9,4.3,1.5,8.6,2.4,12.9c0.3,1.2,0.9,2.3,2.2,2.5c0.2,0,0.4,0,0.5,0.1c0.6,0.1,1.2-0.6,1.5-1
						C214,354.5,214.4,352.2,212.8,351.1L212.8,351.1z"/>
				</g>
			</g>
			<g>
				<g>
					<path class="st8" d="M387.3,91.3c2-7.4,1.1-16,1.2-23.6c0.1-8.3,0.2-16.7-0.8-25c-0.3-2.7-3.4-2.5-3.7,0.1
						c-1,8-0.8,16.1-0.8,24.1c0.1,7.6-0.9,16.5,1.1,23.9C384.7,92.3,386.7,93.4,387.3,91.3L387.3,91.3z"/>
				</g>
			</g>
			<g>
				<g>
					<path class="st8" d="M142.9,95.4c0.2-3.6,0.6-7.2,0.3-10.8c-0.1-1-0.4-2.5-1.6-2.7c-1.1-0.2-1.9,1.1-1.9,2
						c-0.3,3.8,0.1,7.7,0.3,11.5C140.1,98.3,142.8,98.1,142.9,95.4L142.9,95.4z"/>
				</g>
			</g>
			<g>
				<g>
					<path class="st8" d="M128.9,403.6c1.7,0,1.6-3.8-0.1-3.8C127.2,399.8,127.2,403.6,128.9,403.6L128.9,403.6z"/>
				</g>
			</g>
			<g>
				<g>
					<path class="st8" d="M385.9,390.8c11.9,1.2,23.9,1.5,35.9,1.9c3.9,0.1,3.7-9-0.2-8.8c-12,0.4-23.9,0.7-35.8,1.9
						C383.5,385.9,383.7,390.5,385.9,390.8L385.9,390.8z"/>
				</g>
			</g>
			<g>
				<g>
					<path class="st8" d="M103.5,138.8c-0.4,5.8-0.6,11.7-0.4,17.5c0.1,3.1,3.2,3,3.3-0.1c0.2-5.7,0-11.4-0.4-17
						C105.8,137.5,103.7,136.6,103.5,138.8L103.5,138.8z"/>
				</g>
			</g>
			<g>
				<g>
					<path class="st8" d="M433.4,253.1c0.9,0,1.8,0.1,2.6,0.1c0.9,0,1.9-0.1,2.7,0.2c0.4,0.1,0.9,0.1,1.1-0.3
						c0.1-0.1,0.2-0.2,0.3-0.4c0.8-0.9,0.7-2.3-0.1-3.2c-0.1-0.1-0.2-0.2-0.4-0.4c-0.3-0.3-0.8-0.3-1.1-0.2
						c-0.8,0.2-1.9,0.1-2.7,0.2c-0.9,0-1.8,0.1-2.6,0.1C431.6,249.4,431.7,253.1,433.4,253.1L433.4,253.1z"/>
				</g>
			</g>
		</g>
	</g>
	<g class="st9">
		<g class="st2">
			<path class="st4" d="M1508,669.6c1.7,13,4,25.8,7,38.5c0.4,1.9,3.3,1.1,2.9-0.8c-3-12.5-5.3-25-6.9-37.8
				C1510.8,667.7,1507.8,667.7,1508,669.6L1508,669.6z"/>
		</g>
	</g>
</g>
<g id="Livello_5">
</g>
</svg>
